<?xml version="1.0" standalone="no"?>
<!DOCTYPE svg PUBLIC "-//W3C//DTD SVG 20010904//EN"
 "http://www.w3.org/TR/2001/REC-SVG-20010904/DTD/svg10.dtd">
<svg version="1.0" xmlns="http://www.w3.org/2000/svg"
 width="260.000000pt" height="260.000000pt" viewBox="0 0 260.000000 260.000000"
 preserveAspectRatio="xMidYMid meet">
<metadata>
Created by potrace 1.11, written by Peter Selinger 2001-2013
</metadata>
<g transform="translate(0.000000,260.000000) scale(0.100000,-0.100000)"
fill="#000000" stroke="none">
<path d="M0 1572 l0 -1027 45 -28 c25 -15 50 -27 55 -27 5 0 24 -6 42 -14 18
-8 49 -21 68 -29 19 -9 49 -19 65 -22 17 -4 54 -16 83 -26 29 -10 61 -19 72
-19 18 0 50 48 50 77 0 30 22 10 45 -42 13 -30 30 -55 38 -55 22 0 41 -29 43
-64 1 -17 2 -73 3 -123 1 -76 4 -93 16 -93 12 0 15 15 16 73 1 39 4 99 8 132
6 58 7 60 34 59 15 -1 50 -2 77 -2 38 -2 50 -6 50 -17 0 -22 40 -34 70 -22 50
20 95 39 115 47 31 14 63 22 98 24 47 4 221 49 225 58 2 4 10 8 18 8 35 0 116
55 198 134 49 47 96 86 105 86 9 0 37 -21 61 -46 55 -57 110 -84 159 -78 61 8
154 25 191 36 45 13 123 49 131 60 8 13 -1 58 -13 58 -5 0 -6 5 -2 11 7 12 -5
11 -101 -12 -45 -11 -55 -10 -97 11 -27 12 -48 28 -48 36 0 20 43 28 98 18 85
-14 95 -15 276 -15 106 0 206 5 243 12 l63 13 0 918 0 918 -1300 0 -1300 0 0
-1028z m407 -874 c-3 -8 -6 -5 -6 6 -1 11 2 17 5 13 3 -3 4 -12 1 -19z m233
-148 c0 -5 -2 -10 -4 -10 -3 0 -8 5 -11 10 -3 6 -1 10 4 10 6 0 11 -4 11 -10z"/>
<path d="M181 221 c1 -106 5 -141 15 -145 7 -3 16 -1 19 4 4 7 13 6 25 0 30
-16 50 -12 81 19 24 25 29 38 29 80 0 42 -4 53 -26 70 -30 23 -74 27 -92 9 -9
-9 -12 1 -12 45 0 51 -2 57 -21 57 -19 0 -20 -5 -18 -139z m111 -8 c26 -23 25
-89 -3 -103 -54 -30 -98 67 -46 103 28 20 27 20 49 0z"/>
<path d="M1440 306 c0 -55 0 -55 -25 -46 -54 21 -105 -23 -105 -90 0 -72 45
-114 100 -93 21 8 30 8 33 0 2 -6 11 -8 20 -4 16 6 17 22 15 144 -3 122 -5
138 -20 141 -15 3 -18 -5 -18 -52z m-18 -93 c34 -30 16 -103 -25 -103 -31 0
-47 18 -47 53 0 60 34 84 72 50z"/>
<path d="M2020 217 c0 -121 2 -144 15 -144 8 0 15 4 15 9 0 5 9 4 19 -2 32
-16 60 -12 86 15 20 19 25 34 25 75 0 69 -25 94 -86 87 l-44 -5 0 54 c0 41 -4
54 -15 54 -13 0 -15 -23 -15 -143z m119 -15 c22 -53 -12 -112 -54 -96 -35 14
-47 80 -19 108 25 26 60 20 73 -12z"/>
<path d="M705 272 c-5 -4 -11 -22 -13 -39 -2 -37 11 -42 39 -17 19 17 69 13
69 -6 0 -9 -61 -30 -87 -30 -15 0 -33 -32 -33 -59 0 -31 42 -54 82 -45 36 9
35 9 61 -1 15 -6 17 1 17 72 0 99 -14 117 -85 111 -33 -2 -44 0 -40 9 5 15 4
16 -10 5z m95 -122 c0 -24 -41 -53 -64 -44 -30 12 -18 41 22 52 20 5 38 10 40
11 1 1 2 -8 2 -19z"/>
<path d="M883 247 c3 -12 20 -57 39 -99 35 -82 60 -99 78 -55 5 12 22 54 39
92 27 63 28 71 13 76 -22 9 -25 5 -52 -69 -13 -35 -26 -60 -31 -55 -4 4 -18
35 -31 67 -15 39 -30 60 -42 62 -14 2 -17 -2 -13 -19z"/>
<path d="M419 241 c-34 -27 -34 -110 -1 -143 31 -32 97 -31 123 1 10 13 19 27
19 32 0 16 -25 9 -43 -11 -9 -11 -23 -20 -30 -20 -22 0 -57 31 -57 51 0 17 7
19 65 19 52 0 65 3 65 16 0 19 -19 56 -34 66 -21 15 -84 8 -107 -11z m85 -17
c33 -13 17 -34 -24 -32 -46 2 -59 12 -33 27 21 12 35 13 57 5z"/>
<path d="M1126 241 c-23 -25 -31 -84 -17 -120 13 -30 47 -51 85 -51 28 0 76
35 76 56 0 19 -36 18 -44 -1 -9 -23 -63 -19 -76 6 -15 28 -9 32 53 35 28 1 55
2 60 3 14 2 7 39 -14 65 -16 21 -29 26 -63 26 -29 0 -48 -6 -60 -19z m94 -26
c11 -13 7 -15 -29 -15 -38 0 -50 8 -34 23 12 12 50 7 63 -8z"/>
<path d="M1548 249 c-10 -5 -22 -27 -28 -49 -27 -99 65 -167 139 -104 26 21
31 33 31 69 0 62 -29 95 -83 95 -23 0 -50 -5 -59 -11z m91 -42 c18 -33 10 -77
-16 -94 -20 -14 -24 -13 -48 12 -21 20 -25 32 -20 53 4 15 11 33 17 39 17 21
53 15 67 -10z"/>
<path d="M1732 168 c3 -105 20 -124 29 -35 7 64 29 97 64 97 29 0 35 -17 35
-94 0 -49 3 -63 15 -63 22 0 22 149 -1 171 -19 19 -75 21 -93 4 -11 -10 -14
-10 -18 0 -3 6 -11 12 -19 12 -12 0 -14 -17 -12 -92z"/>
<path d="M2210 257 c0 -1 16 -40 35 -86 42 -100 44 -121 10 -121 -18 0 -23 -4
-19 -15 9 -23 52 -18 69 8 8 13 33 67 54 120 35 86 38 97 22 97 -17 0 -27 -18
-69 -124 -6 -14 -14 -3 -36 53 -21 53 -32 71 -47 71 -10 0 -19 -1 -19 -3z"/>
<path d="M1940 97 c0 -19 10 -27 26 -20 21 8 17 33 -6 33 -11 0 -20 -6 -20
-13z"/>
</g>
</svg>
